<?xml version="1.0" encoding="utf-8"?>
<!-- Generator: Adobe Illustrator 23.1.0, SVG Export Plug-In . SVG Version: 6.00 Build 0)  -->
<svg version="1.1" id="Calque_1" xmlns="http://www.w3.org/2000/svg" xmlns:xlink="http://www.w3.org/1999/xlink" x="0px" y="0px"
	 viewBox="0 0 200 57" style="enable-background:new 0 0 200 57;" xml:space="preserve">
<style type="text/css">
	.st0{fill:#006451;}
</style>
<g>
	<path class="st0" d="M58.8,43.5c-2.9-2.9-4.4-6.8-4.4-11.7V9.7h7.7v22.5c0,2.6,0.8,4.8,2.2,6.3c1.5,1.5,3.6,2.2,6.2,2.2
		c2,0,3.8-0.4,5.6-1.3v7.3c-1.7,0.8-3.6,1.1-5.7,1.1C65.7,47.9,61.8,46.4,58.8,43.5z M78.6,9.7h7.7v22c0,3.2-0.7,6.1-2.1,8.5
		c-1.4,2.4-3.2,4.2-5.6,5.5V9.7z"/>
	<path class="st0" d="M39.5,9.7h7.7v22c0,3.2-0.7,6.1-2.1,8.5c-1.4,2.4-3.2,4.2-5.6,5.5C39.5,45.6,39.5,9.7,39.5,9.7z"/>
	<path class="st0" d="M101.5,37.9h-7.7V9.7h7.7V37.9z M117.9,47.2H93.8v-6.9h24.1V47.2z"/>
	<path class="st0" d="M123.6,9.7h25.2v6.9h-17.5v23.6h18.2v6.9h-25.9V9.7L123.6,9.7z M133.6,24.2h10.5v6.5h-10.5V24.2z"/>
	<path class="st0" d="M167.7,15.9c-0.6,0-1.3,0.1-2.1,0.3V9.4c0.9-0.2,1.6-0.3,2.1-0.3c2.9,0,5.5,0.7,7.5,2c2.1,1.3,3.8,3,4.9,5.1
		l-5.2,4C173,17.3,170.6,15.9,167.7,15.9z"/>
	<path class="st0" d="M168.5,32.3l-4-1.8c-2.9-1.3-5.1-2.8-6.8-4.5c-1.5-1.7-2.3-3.8-2.3-6.2c0-2.3,0.7-4.4,2.1-6.1
		c1.4-1.7,3.2-2.9,5.6-3.6v8.5c0,1.4,0.3,2.5,1,3.1c0.7,0.7,1.8,1.4,3.4,2.1l4.3,1.9c3.2,1.5,5.6,3,7,4.7c1.5,1.7,2.2,3.8,2.2,6.2
		c0,3.4-1.2,6.1-3.7,8.1s-5.6,3.1-9.4,3.1c-3.2,0-6-0.8-8.5-2.2c-2.6-1.5-4.5-3.5-6-6.1l5.3-3.9c2.6,3.7,5.7,5.5,9.2,5.5
		c1.7,0,3-0.3,3.9-1.1s1.4-1.8,1.4-3c0-1-0.3-1.9-0.9-2.5C171.7,33.9,170.4,33.1,168.5,32.3z"/>
	<path class="st0" d="M31.6,40.7c2,0,3.8-0.4,5.6-1.3v7.3c-1.7,0.8-3.6,1.1-5.7,1.1c-4.8,0-8.6-1.5-11.5-4.4c-1.4-1.4-2.5-3.1-3.2-5
		l6.2-3.3c0.9,2.1,2.3,3.8,4.3,4.7C27.1,39.8,28.8,40.7,31.6,40.7z"/>
</g>
</svg>
